<svg xmlns="http://www.w3.org/2000/svg" width="25" height="25" viewBox="0 0 25 25">
    <g fill="none" fill-rule="evenodd">
        <g fill="#EEBB05">
            <g>
                <g>
                    <g>
                        <path d="M24.937 9.45c-.152-.487-.555-.843-1.04-.917L16.82 7.458 13.656.751C13.438.291 12.99 0 12.5 0c-.49 0-.939.291-1.156.751L8.18 7.458 1.104 8.533c-.486.074-.89.43-1.04.918-.152.488-.026 1.023.325 1.382l5.12 5.22-1.208 7.371c-.083.506.116 1.017.513 1.319.396.301.923.341 1.357.102l6.329-3.48 6.329 3.48c.189.104.394.155.6.155.267 0 .533-.087.757-.257.397-.302.596-.813.513-1.319l-1.208-7.371 5.12-5.22c.351-.359.477-.894.326-1.382" transform="translate(-375 -342) translate(215 236) translate(10 106) translate(150)"/>
                    </g>
                </g>
            </g>
        </g>
    </g>
</svg>
